<svg width="340" height="268" viewBox="0 0 340 268" fill="none" xmlns="http://www.w3.org/2000/svg">
<path fill-rule="evenodd" clip-rule="evenodd" d="M75.8916 43.1823L78 41.0939L68.0602 31.2486V4.39779H54.2048V17.5249L40.4498 4L3 41.1934L5.10843 43.2818L12.9398 35.5249V73.116H9.0241V76H73.1807V73.116H68.0602V35.4254L75.8916 43.1823ZM57.1165 7.38122H65.0482V28.3646L57.1165 20.5083V7.38122ZM65.0482 73.0166H15.9518V32.5414L40.4498 8.1768L65.0482 32.5414V73.0166ZM33.1206 68.5414H49.1849V44.7734H33.1206V68.5414ZM46.1728 65.6574H36.0323V47.6574H46.1728V65.6574ZM40.8515 39.3039C36.6347 39.3039 33.1206 35.8232 33.1206 31.547C33.1206 27.2707 36.5343 23.8895 40.8515 23.8895C45.1688 23.8895 48.6829 27.2707 48.6829 31.547C48.6829 35.8232 45.1688 39.3039 40.8515 39.3039ZM45.8716 31.547C45.8716 28.7625 43.5624 26.5746 40.8515 26.5746C38.1407 26.5746 35.8315 28.8619 35.8315 31.547C35.8315 34.3315 38.1407 36.5194 40.8515 36.5194C43.6628 36.5194 45.8716 34.2321 45.8716 31.547ZM23.0803 44.7734H20.0683V48.6519H23.0803V44.7734ZM26.0924 44.7734H29.1044V48.6519H26.0924V44.7734ZM23.0803 50.7404H20.0683V54.6188H23.0803V50.7404ZM26.0924 50.7404H29.1044V54.6188H26.0924V50.7404ZM55.2088 44.7734H52.1968V48.6519H55.2088V44.7734ZM58.2209 44.7734H61.2329V48.6519H58.2209V44.7734ZM55.2088 50.7404H52.1968V54.6188H55.2088V50.7404ZM58.2209 50.7404H61.2329V54.6188H58.2209V50.7404Z" fill="#81B3D2"/>
<path fill-rule="evenodd" clip-rule="evenodd" d="M72.5314 120.375L72.5314 120.374C72.5547 119.546 72.5862 118.429 72.5144 118.141C71.8163 102.518 57.4541 90 39.8005 90C22.147 90 7.68504 102.518 6.98688 118.141V121.145H72.5144C72.5144 120.977 72.5223 120.698 72.5314 120.375ZM39.8005 93.0044C55.7585 93.0044 68.9239 104.221 69.5223 118.141H9.979C10.6772 104.221 23.8425 93.0044 39.8005 93.0044ZM23.2441 132.862L17.8583 128.856L12.3727 132.862L5.9895 128.155L7.78478 125.752L12.3727 129.057L17.8583 125.051L23.2441 129.057L28.7297 125.051L34.2152 129.057L39.7008 125.051L45.0866 129.057L50.5722 125.051L56.0577 129.057L61.5433 125.051L67.0289 129.057L71.6168 125.752L73.3123 128.155L67.0289 132.862L61.5433 128.856L56.0577 132.862L50.5722 128.856L45.0866 132.862L39.7008 128.856L34.2152 132.862L28.7297 128.856L23.2441 132.862ZM6.28871 136.067H73.7113C76.105 136.067 78 138.07 78 140.273V143.778C78 146.181 76.0053 148.084 73.7113 148.084H72.7139V149.086C72.7139 154.493 68.3255 159 62.8399 159H17.1601C11.7743 159 7.28609 154.593 7.28609 149.086V148.084H6.28871C3.89501 148.084 2 146.181 2 143.878V140.373C2 138.07 3.89501 136.067 6.28871 136.067ZM62.9396 155.996C66.7297 155.996 69.8215 152.891 69.8215 149.086V148.084H10.1785V149.086C10.1785 152.891 13.2703 155.996 17.0604 155.996H62.9396ZM73.7113 145.08C74.4095 145.08 75.0079 144.479 75.0079 143.778H75.1076V140.373C75.1076 139.672 74.5092 139.071 73.811 139.071H6.28871C5.59055 139.071 4.99213 139.672 4.99213 140.273V143.778C4.99213 144.479 5.59055 145.08 6.28871 145.08H73.7113ZM41.895 105.623C41.895 106.729 41.0019 107.626 39.9003 107.626C38.7986 107.626 37.9055 106.729 37.9055 105.623C37.9055 104.517 38.7986 103.62 39.9003 103.62C41.0019 103.62 41.895 104.517 41.895 105.623ZM31.9213 102.618C33.0229 102.618 33.916 101.722 33.916 100.615C33.916 99.5093 33.0229 98.6125 31.9213 98.6125C30.8196 98.6125 29.9265 99.5093 29.9265 100.615C29.9265 101.722 30.8196 102.618 31.9213 102.618ZM49.874 100.615C49.874 101.722 48.9809 102.618 47.8793 102.618C46.7776 102.618 45.8845 101.722 45.8845 100.615C45.8845 99.5093 46.7776 98.6125 47.8793 98.6125C48.9809 98.6125 49.874 99.5093 49.874 100.615Z" fill="#81B3D2"/>
<path d="M69.2 193.117H69.1H44.8C58.4 186.319 59.5 182.02 59 179.621C57.9 175.722 53.4 172.723 49.2 174.323C43.7 176.422 42.2 184.619 40.7 190.518C38.8 184.519 37 176.922 32.7 173.023C31.5 171.923 29.7 170.824 27 171.024C23 171.424 17.3 176.322 19.7 181.82C21.9 187.119 29.2 190.518 34.1 193.217H11.8C10.2 193.217 9 194.516 9 196.016V207.212C9 208.812 10.3 210.011 11.8 210.011H12.1V246H69.1V210.011H69.2C70.8 210.011 72 208.712 72 207.212V196.016C72 194.416 70.7 193.117 69.2 193.117ZM50.8 176.822C52.9 176.522 55.7 178.121 56 180.021C56.4 182.72 52.7 185.219 51 186.319C48.5 188.018 46.1 188.918 43.8 190.318C44.6 186.619 46.3 177.422 50.8 176.822ZM28.2 186.619C26 185.119 21.8 182.22 21.9 178.921C22 175.322 27.6 172.423 30.6 175.122C34.4 178.421 36.2 186.119 37.6 191.517C34.4 189.918 31.4 188.718 28.2 186.619ZM34.1 243.001H15V210.011H34.1V243.001ZM34.1 207.012H12V196.116H34.1V207.012ZM44.1 243.001H37V196.116H44.1V243.001ZM66.1 243.001H47.1V210.011H66.2V243.001H66.1ZM69 207.012H47.1V196.116H69V207.012Z" fill="#81B3D2"/>
<path d="M138.181 19H123.813C122.306 19 121 20.3 121 21.8V30.1C121 31.7 122.306 33 123.813 33H138.181C139.789 33 140.995 31.7 140.995 30.2V21.8C141.095 20.3 139.789 19 138.181 19ZM128.033 29.4V22.6L134.866 26L128.033 29.4Z" fill="#81B3D2"/>
<path d="M135.134 49H135.045L123 50.1906V71.1965L135.045 78L147 71.1965V50.1906L135.134 49ZM145.305 59.2903L135.045 53.5073V53.4223H134.955L134.866 53.3372V53.4223L124.695 59.2903V51.6364L134.955 50.6158L145.305 51.6364V59.2903ZM134.955 54.783L145.216 60.4809L141.201 62.6921L134.866 59.1202V60.3109L140.13 63.2874L139.327 63.7126L134.866 61.1613V62.3519L138.257 64.3079L137.543 64.7331L134.866 63.2023V64.393L136.561 65.3284L134.955 66.2639L124.784 60.566L134.955 54.783ZM124.695 61.8416L134.866 67.6246V68.4751L127.818 64.478V65.6686L134.955 69.7507V70.6862L127.818 66.6891V67.8798L134.955 71.9619L142.182 67.7947V63.3724L145.216 61.6716V70.176L134.955 76.044L124.695 70.261V61.8416Z" fill="#81B3D2"/>
<path d="M222 53.1532L218.721 50L209 59.3468L199.279 50L196 53.1532L205.721 62.5L196 71.8468L199.279 75L209 65.6532L218.721 75L222 71.8468L212.279 62.5L222 53.1532Z" fill="#81B3D2"/>
<path d="M221 86H197V90H221V86Z" fill="#81B3D2"/>
<path d="M221 94H197V98H221V94Z" fill="#81B3D2"/>
<path d="M221 102H197V106H221V102Z" fill="#81B3D2"/>
<path d="M258.77 53.5516L257.533 52.2635C257.196 51.9122 256.522 51.9122 256.184 52.2635L242.808 66.1988L235.838 58.9384C235.501 58.5871 234.827 58.5871 234.489 58.9384L233.253 60.2265C232.916 60.5778 232.916 61.2804 233.253 61.6317L242.021 70.7658C242.246 71 242.47 71 242.695 71C242.92 71 243.145 70.8829 243.37 70.7658L258.545 54.9569C259.107 54.6056 259.107 54.02 258.77 53.5516Z" fill="#81B3D2"/>
<path d="M172.4 57.6L171.8 60.5L171.2 63H173.7H179.9V65C179.9 65 179.9 65 179.9 65.1L177 72H168V62L172.4 57.6ZM162 64V72V64ZM173.2 54L166.6 60.6C166.2 60.9 166 61.4 166 62V72C166 73.1 166.9 74 168 74H177C177.8 74 178.5 73.5 178.8 72.8L181.8 65.7C181.9 65.5 181.9 65.2 181.9 65V63H182C182 61.9 181.1 61 180 61H173.7L174.7 56.4V56.1C174.7 55.7 174.5 55.3 174.3 55L173.2 54ZM164 62H160V74H164V62Z" fill="#81B3D2"/>
<path d="M169.439 18.6223L166.27 33.566C166.031 34.6205 165.408 34.883 164.522 34.3865L159.694 30.8285L157.364 33.0695C157.106 33.3275 156.891 33.5428 156.394 33.5428L156.741 28.6258L165.689 20.54C166.078 20.1935 165.604 20.0008 165.085 20.348L154.022 27.314L149.26 25.823C148.224 25.4998 148.205 24.7873 149.476 24.29L168.103 17.1133C168.966 16.79 169.72 17.3053 169.439 18.623V18.6223Z" fill="#81B3D2"/>
<g clip-path="url(#clip0_29547_1653)">
<path fill-rule="evenodd" clip-rule="evenodd" d="M198.45 19.948C198.616 19.402 198.45 19 197.655 19H195.03C194.362 19 194.054 19.347 193.887 19.73C193.887 19.73 192.552 22.926 190.661 25.002C190.049 25.604 189.771 25.795 189.437 25.795C189.27 25.795 189.019 25.604 189.019 25.057V19.948C189.019 19.292 188.835 19 188.279 19H184.151C183.734 19 183.483 19.304 183.483 19.593C183.483 20.214 184.429 20.358 184.526 22.106V25.904C184.526 26.737 184.373 26.888 184.039 26.888C183.149 26.888 180.984 23.677 179.699 20.003C179.45 19.288 179.198 19 178.527 19H175.9C175.15 19 175 19.347 175 19.73C175 20.412 175.89 23.8 179.145 28.281C181.315 31.341 184.37 33 187.153 33C188.822 33 189.028 32.632 189.028 31.997V29.684C189.028 28.947 189.186 28.8 189.715 28.8C190.105 28.8 190.772 28.992 192.33 30.467C194.11 32.216 194.403 33 195.405 33H198.03C198.78 33 199.156 32.632 198.94 31.904C198.702 31.18 197.852 30.129 196.725 28.882C196.113 28.172 195.195 27.407 194.916 27.024C194.527 26.533 194.638 26.314 194.916 25.877C194.916 25.877 198.116 21.451 198.449 19.948H198.45Z" fill="#81B3D2"/>
</g>
<defs>
<clipPath id="clip0_29547_1653">
<rect width="24" height="24" fill="white" transform="translate(175 14)"/>
</clipPath>
</defs>
</svg>
