<svg xmlns="http://www.w3.org/2000/svg">
    <symbol viewBox="0 0 78 75" id="icon-burger">
    <path fill-rule="evenodd" clip-rule="evenodd" d="M72.5314 36.3747L72.5314 36.3739C72.5547 35.5459 72.5862 34.4289 72.5144 34.1408C71.8163 18.5181 57.4541 6 39.8005 6C22.147 6 7.68504 18.5181 6.98688 34.1408V37.1451H72.5144C72.5144 36.9766 72.5223 36.6976 72.5314 36.3747ZM39.8005 9.00435C55.7585 9.00435 68.9239 20.2206 69.5223 34.1408H9.979C10.6772 20.2206 23.8425 9.00435 39.8005 9.00435ZM23.2441 48.8621L17.8583 44.8563L12.3727 48.8621L5.9895 44.1553L7.78478 41.7518L12.3727 45.0566L17.8583 41.0508L23.2441 45.0566L28.7297 41.0508L34.2152 45.0566L39.7008 41.0508L45.0866 45.0566L50.5722 41.0508L56.0577 45.0566L61.5433 41.0508L67.0289 45.0566L71.6168 41.7518L73.3123 44.1553L67.0289 48.8621L61.5433 44.8563L56.0577 48.8621L50.5722 44.8563L45.0866 48.8621L39.7008 44.8563L34.2152 48.8621L28.7297 44.8563L23.2441 48.8621ZM6.28871 52.0667H73.7113C76.105 52.0667 78 54.0696 78 56.2727V59.7778C78 62.1813 76.0053 64.0841 73.7113 64.0841H72.7139V65.0855C72.7139 70.4934 68.3255 74.9999 62.8399 74.9999H17.1601C11.7743 74.9999 7.28609 70.5935 7.28609 65.0855V64.0841H6.28871C3.89501 64.0841 2 62.1813 2 59.878V56.3729C2 54.0696 3.89501 52.0667 6.28871 52.0667ZM62.9396 71.9955C66.7297 71.9955 69.8215 68.891 69.8215 65.0855V64.0841H10.1785V65.0855C10.1785 68.891 13.2703 71.9955 17.0604 71.9955H62.9396ZM73.7113 61.0797C74.4095 61.0797 75.0079 60.4788 75.0079 59.7778H75.1076V56.3729C75.1076 55.6719 74.5092 55.071 73.811 55.071H6.28871C5.59055 55.071 4.99213 55.6719 4.99213 56.2727V59.7778C4.99213 60.4788 5.59055 61.0797 6.28871 61.0797H73.7113ZM41.895 21.6228C41.895 22.7289 41.0019 23.6257 39.9003 23.6257C38.7986 23.6257 37.9055 22.7289 37.9055 21.6228C37.9055 20.5166 38.7986 19.6199 39.9003 19.6199C41.0019 19.6199 41.895 20.5166 41.895 21.6228ZM31.9213 18.6184C33.0229 18.6184 33.916 17.7216 33.916 16.6155C33.916 15.5093 33.0229 14.6125 31.9213 14.6125C30.8196 14.6125 29.9265 15.5093 29.9265 16.6155C29.9265 17.7216 30.8196 18.6184 31.9213 18.6184ZM49.874 16.6155C49.874 17.7216 48.9809 18.6184 47.8793 18.6184C46.7776 18.6184 45.8845 17.7216 45.8845 16.6155C45.8845 15.5093 46.7776 14.6125 47.8793 14.6125C48.9809 14.6125 49.874 15.5093 49.874 16.6155Z" />
    </symbol>
    <symbol viewBox="0 0 28.999445 24" id="icon-tick">
        <path d="M28.7699 6.55162L27.5333 5.26348C27.1961 4.91217 26.5217 4.91217 26.1844 5.26348L12.8077 19.1988L5.83834 11.9384C5.50111 11.5871 4.82665 11.5871 4.48942 11.9384L3.25292 13.2265C2.91569 13.5778 2.91569 14.2804 3.25292 14.6317L12.0209 23.7658C12.2457 24 12.4705 24 12.6953 24C12.9201 24 13.1449 23.8829 13.3698 23.7658L28.545 7.95686C29.1071 7.60555 29.1071 7.02003 28.7699 6.55162Z" />
    </symbol>
    <symbol viewBox="0 0 29 28" id="icon-cross">
        <path d="M29 6.15315L25.7207 3L16 12.3468L6.27928 3L3 6.15315L12.7207 15.5L3 24.8468L6.27928 28L16 18.6532L25.7207 28L29 24.8468L19.2793 15.5L29 6.15315Z" />
    </symbol>
    <symbol viewBox="0 0 78 76" id="icon-house">
    <path fill-rule="evenodd" clip-rule="evenodd" d="M75.8916 43.1823L78 41.0939L68.0602 31.2486V4.39779H54.2048V17.5249L40.4498 4L3 41.1934L5.10843 43.2818L12.9398 35.5249V73.116H9.0241V76H73.1807V73.116H68.0602V35.4254L75.8916 43.1823ZM57.1165 7.38122H65.0482V28.3646L57.1165 20.5083V7.38122ZM65.0482 73.0166H15.9518V32.5414L40.4498 8.1768L65.0482 32.5414V73.0166ZM33.1206 68.5414H49.1849V44.7734H33.1206V68.5414ZM46.1728 65.6574H36.0323V47.6574H46.1728V65.6574ZM40.8515 39.3039C36.6347 39.3039 33.1206 35.8232 33.1206 31.547C33.1206 27.2707 36.5343 23.8895 40.8515 23.8895C45.1688 23.8895 48.6829 27.2707 48.6829 31.547C48.6829 35.8232 45.1688 39.3039 40.8515 39.3039ZM45.8716 31.547C45.8716 28.7625 43.5624 26.5746 40.8515 26.5746C38.1407 26.5746 35.8315 28.8619 35.8315 31.547C35.8315 34.3315 38.1407 36.5194 40.8515 36.5194C43.6628 36.5194 45.8716 34.2321 45.8716 31.547ZM23.0803 44.7734H20.0683V48.6519H23.0803V44.7734ZM26.0924 44.7734H29.1044V48.6519H26.0924V44.7734ZM23.0803 50.7404H20.0683V54.6188H23.0803V50.7404ZM26.0924 50.7404H29.1044V54.6188H26.0924V50.7404ZM55.2088 44.7734H52.1968V48.6519H55.2088V44.7734ZM58.2209 44.7734H61.2329V48.6519H58.2209V44.7734ZM55.2088 50.7404H52.1968V54.6188H55.2088V50.7404ZM58.2209 50.7404H61.2329V54.6188H58.2209V50.7404Z" fill="black"/>
    </symbol>
    <symbol viewBox="0 0 28 31" id="icon-html">
    <path d="M16.1338 2H16.0446L4 3.19062V24.1965L16.0446 31L28 24.1965V3.19062L16.1338 2ZM26.3048 12.2903L16.0446 6.50733V6.42229H15.9554L15.8662 6.33724V6.42229L5.69517 12.2903V4.63636L15.9554 3.61584L26.3048 4.63636V12.2903ZM15.9554 7.78299L26.2156 13.4809L22.2007 15.6921L15.8662 12.1202V13.3109L21.1301 16.2874L20.3271 16.7126L15.8662 14.1613V15.3519L19.2565 17.3079L18.5428 17.7331L15.8662 16.2023V17.393L17.5613 18.3284L15.9554 19.2639L5.78439 13.566L15.9554 7.78299ZM5.69517 14.8416L15.8662 20.6246V21.4751L8.81784 17.478V18.6686L15.9554 22.7507V23.6862L8.81784 19.6891V20.8798L15.9554 24.9619L23.1822 20.7947V16.3724L26.2156 14.6716V23.176L15.9554 29.044L5.69517 23.261V14.8416Z" />
    </symbol>
    <symbol viewBox="0 0 27 26" id="icon-like">
    <path d="M17.4 9.6L16.8 12.5L16.2 15H18.7H24.9V17C24.9 17 24.9 17 24.9 17.1L22 24H13V14L17.4 9.6ZM7 16V24V16ZM18.2 6L11.6 12.6C11.2 12.9 11 13.4 11 14V24C11 25.1 11.9 26 13 26H22C22.8 26 23.5 25.5 23.8 24.8L26.8 17.7C26.9 17.5 26.9 17.2 26.9 17V15H27C27 13.9 26.1 13 25 13H18.7L19.7 8.4V8.1C19.7 7.7 19.5 7.3 19.3 7L18.2 6ZM9 14H5V26H9V14Z" />
    </symbol>
    <symbol viewBox="0 0 28 26" id="icon-menu">
    <path d="M28 6H4V10H28V6Z" />
    <path d="M28 14H4V18H28V14Z" />
    <path d="M28 22H4V26H28V22Z" />
    </symbol>
    <symbol viewBox="0 0 72 78" id="icon-souvenir">
    <path d="M69.2 25.1167H69.1H44.8C58.4 18.3189 59.5 14.0202 59 11.621C57.9 7.72221 53.4 4.72316 49.2 6.32266C43.7 8.42199 42.2 16.6194 40.7 22.5175C38.8 16.5194 37 8.92183 32.7 5.02307C31.5 3.92341 29.7 2.82376 27 3.0237C23 3.42357 17.3 8.32202 19.7 13.8203C21.9 19.1186 29.2 22.5175 34.1 25.2167H11.8C10.2 25.2167 9 26.5163 9 28.0158V39.2123C9 40.8118 10.3 42.0114 11.8 42.0114H12.1V78H69.1V42.0114H69.2C70.8 42.0114 72 40.7118 72 39.2123V28.0158C72 26.4163 70.7 25.1167 69.2 25.1167ZM50.8 8.82187C52.9 8.52196 55.7 10.1215 56 12.0209C56.4 14.72 52.7 17.2192 51 18.3189C48.5 20.0183 46.1 20.918 43.8 22.3176C44.6 18.6188 46.3 9.42168 50.8 8.82187ZM28.2 18.6188C26 17.1192 21.8 14.2202 21.9 10.9212C22 7.32234 27.6 4.42326 30.6 7.1224C34.4 10.4214 36.2 18.1189 37.6 23.5172C34.4 21.9177 31.4 20.7181 28.2 18.6188ZM34.1 75.0009H15V42.0114H34.1V75.0009ZM34.1 39.0123H12V28.1158H34.1V39.0123ZM44.1 75.0009H37V28.1158H44.1V75.0009ZM66.1 75.0009H47.1V42.0114H66.2V75.0009H66.1ZM69 39.0123H47.1V28.1158H69V39.0123Z" />
    </symbol>
    <symbol viewBox="0 0 22.498474 20.628721" id="icon-telegram">
    <path d="M22.4391 4.62225L19.2704 19.566C19.0311 20.6205 18.4079 20.883 17.5221 20.3865L12.6936 16.8285L10.3641 19.0695C10.1061 19.3275 9.8909 19.5428 9.39365 19.5428L9.7409 14.6258L18.6891 6.54C19.0784 6.1935 18.6044 6.00075 18.0846 6.348L7.02215 13.314L2.25965 11.823C1.2239 11.4998 1.20515 10.7873 2.47565 10.29L21.1034 3.11325C21.9659 2.79 22.7204 3.30525 22.4391 4.623V4.62225Z" />
    </symbol>
    <symbol viewBox="0 0 24.00031 19" id="icon-vk">
    <g clip-path="url(#clip0_29705_1038)">
        <path fill-rule="evenodd" clip-rule="evenodd" d="M23.45 5.948C23.616 5.402 23.45 5 22.655 5H20.03C19.362 5 19.054 5.347 18.887 5.73C18.887 5.73 17.552 8.926 15.661 11.002C15.049 11.604 14.771 11.795 14.437 11.795C14.27 11.795 14.019 11.604 14.019 11.057V5.948C14.019 5.292 13.835 5 13.279 5H9.151C8.734 5 8.483 5.304 8.483 5.593C8.483 6.214 9.429 6.358 9.526 8.106V11.904C9.526 12.737 9.373 12.888 9.039 12.888C8.149 12.888 5.984 9.677 4.699 6.003C4.45 5.288 4.198 5 3.527 5H0.9C0.15 5 0 5.347 0 5.73C0 6.412 0.89 9.8 4.145 14.281C6.315 17.341 9.37 19 12.153 19C13.822 19 14.028 18.632 14.028 17.997V15.684C14.028 14.947 14.186 14.8 14.715 14.8C15.105 14.8 15.772 14.992 17.33 16.467C19.11 18.216 19.403 19 20.405 19H23.03C23.78 19 24.156 18.632 23.94 17.904C23.702 17.18 22.852 16.129 21.725 14.882C21.113 14.172 20.195 13.407 19.916 13.024C19.527 12.533 19.638 12.314 19.916 11.877C19.916 11.877 23.116 7.451 23.449 5.948H23.45Z" />
    </g>
    <defs>
        <clipPath id="clip0_29705_1038">
            <rect width="24" height="24" fill="white"/>
        </clipPath>
    </defs>
    </symbol>
    <symbol viewBox="0 0 21.99955 19" id="icon-youtube">
    <path d="M19.1813 5H4.81331C3.30618 5 2 6.3 2 7.8V16.1C2 17.7 3.30618 19 4.81331 19H19.1813C20.7889 19 21.9946 17.7 21.9946 16.2V7.8C22.095 6.3 20.7889 5 19.1813 5ZM9.03326 15.4V8.6L15.8656 12L9.03326 15.4Z" />
    </symbol>
</svg>


